<svg width="42" height="42" viewBox="0 0 42 42" version="1.1" xmlns="http://www.w3.org/2000/svg" xmlns:xlink="http://www.w3.org/1999/xlink">
<title>Vector</title>
<desc>Created using Figma</desc>
<g id="Canvas" transform="translate(-680 2499)">
<g id="Vector">
<use xlink:href="#path0_fill" transform="translate(680 -2499)" fill="#212121" fill-opacity="0.8"/>
</g>
</g>
<defs>
<path id="path0_fill" d="M 21 0C 9.40333 0 0 9.40333 0 21C 0 32.5967 9.40333 42 21 42C 22.9367 42 24.5 40.4367 24.5 38.5C 24.5 37.59 24.15 36.7733 23.59 36.1433C 23.0533 35.5367 22.7033 34.72 22.7033 33.8333C 22.7033 31.8967 24.2667 30.3333 26.2033 30.3333L 30.3333 30.3333C 36.7733 30.3333 42 25.1067 42 18.6667C 42 8.35333 32.5967 0 21 0ZM 8.16667 21C 6.23 21 4.66667 19.4367 4.66667 17.5C 4.66667 15.5633 6.23 14 8.16667 14C 10.1033 14 11.6667 15.5633 11.6667 17.5C 11.6667 19.4367 10.1033 21 8.16667 21ZM 15.1667 11.6667C 13.23 11.6667 11.6667 10.1033 11.6667 8.16667C 11.6667 6.23 13.23 4.66667 15.1667 4.66667C 17.1033 4.66667 18.6667 6.23 18.6667 8.16667C 18.6667 10.1033 17.1033 11.6667 15.1667 11.6667ZM 26.8333 11.6667C 24.8967 11.6667 23.3333 10.1033 23.3333 8.16667C 23.3333 6.23 24.8967 4.66667 26.8333 4.66667C 28.77 4.66667 30.3333 6.23 30.3333 8.16667C 30.3333 10.1033 28.77 11.6667 26.8333 11.6667ZM 33.8333 21C 31.8967 21 30.3333 19.4367 30.3333 17.5C 30.3333 15.5633 31.8967 14 33.8333 14C 35.77 14 37.3333 15.5633 37.3333 17.5C 37.3333 19.4367 35.77 21 33.8333 21Z"/>
</defs>
</svg>
