<svg width="48" height="48" viewBox="0 0 48 48" version="1.1" xmlns="http://www.w3.org/2000/svg" xmlns:xlink="http://www.w3.org/1999/xlink">
<title>Vector</title>
<desc>Created using Figma</desc>
<g id="Canvas" transform="translate(-995 2502)">
<g id="Vector">
<use xlink:href="#path0_fill" transform="translate(995.667 -2501.33)" fill="#212121" fill-opacity="0.8"/>
</g>
</g>
<defs>
<path id="path0_fill" d="M 23.3333 0C 10.4533 0 0 10.4533 0 23.3333C 0 36.2133 10.4533 46.6667 23.3333 46.6667C 36.2133 46.6667 46.6667 36.2133 46.6667 23.3333C 46.6667 10.4533 36.2133 0 23.3333 0ZM 25.6667 39.6667L 21 39.6667L 21 35L 25.6667 35L 25.6667 39.6667ZM 30.4967 21.5833L 28.3967 23.73C 26.7167 25.4333 25.6667 26.8333 25.6667 30.3333L 21 30.3333L 21 29.1667C 21 26.6 22.05 24.2667 23.73 22.5633L 26.6233 19.6233C 27.4867 18.7833 28 17.6167 28 16.3333C 28 13.7667 25.9 11.6667 23.3333 11.6667C 20.7667 11.6667 18.6667 13.7667 18.6667 16.3333L 14 16.3333C 14 11.1767 18.1767 7 23.3333 7C 28.49 7 32.6667 11.1767 32.6667 16.3333C 32.6667 18.3867 31.8267 20.2533 30.4967 21.5833Z"/>
</defs>
</svg>
