<svg width="24" height="24" viewBox="0 0 24 24" version="1.1" xmlns="http://www.w3.org/2000/svg" xmlns:xlink="http://www.w3.org/1999/xlink">
<title>Vector</title>
<desc>Created using Figma</desc>
<g id="Canvas" transform="translate(628 -1106)">
<g id="Vector">
<use xlink:href="#path0_fill" transform="translate(-628 1106)" fill="#9E9E9E"/>
</g>
</g>
<defs>
<path id="path0_fill" d="M 7.33333 14L 10.6667 18L 15.3333 12L 21.3333 20L 2.66667 20L 7.33333 14ZM 24 21.3333L 24 2.66667C 24 1.18667 22.8 0 21.3333 0L 2.66667 0C 1.95942 5.92119e-16 1.28115 0.280951 0.781048 0.781048C 0.280951 1.28115 1.18424e-15 1.95942 5.92119e-16 2.66667L 5.92119e-16 21.3333C 1.18424e-15 22.0406 0.280951 22.7189 0.781048 23.219C 1.28115 23.719 1.95942 24 2.66667 24L 21.3333 24C 22.0406 24 22.7189 23.719 23.219 23.219C 23.719 22.7189 24 22.0406 24 21.3333Z"/>
</defs>
</svg>
