<svg width="27" height="30" viewBox="0 0 27 30" version="1.1" xmlns="http://www.w3.org/2000/svg" xmlns:xlink="http://www.w3.org/1999/xlink">
<title>Vector</title>
<desc>Created using Figma</desc>
<g id="Canvas" transform="translate(628 -1060)">
<g id="Vector">
<use xlink:href="#path0_fill" transform="translate(-628 1060)" fill="#9E9E9E"/>
</g>
</g>
<defs>
<path id="path0_fill" d="M 13.5 3.52343e-08C 13.095 3.52343e-08 12.675 0.103448 12.33 0.295566L 1.17 6.65025C 0.45 7.06404 0 7.83251 0 8.6601L 0 21.3399C 0 22.1675 0.45 22.936 1.17 23.3498L 4.095 25.0049C 5.52 25.6847 6 25.6995 6.66 25.6995C 8.76 25.6995 9.975 24.4433 9.975 22.2562L 9.975 9.73892C 9.975 9.56158 9.825 9.41379 9.645 9.41379L 8.25 9.41379C 8.055 9.41379 7.905 9.56158 7.905 9.73892L 7.905 22.2562C 7.905 23.2315 6.885 24.1921 5.25 23.3793L 2.175 21.6502C 2.07 21.5764 2.01 21.4581 2.01 21.3399L 2.01 8.6601C 2.01 8.52709 2.07 8.40887 2.175 8.34975L 13.335 2.00985C 13.425 1.95074 13.575 1.95074 13.665 2.00985L 24.825 8.34975C 24.93 8.40887 24.99 8.52709 24.99 8.6601L 24.99 21.3399C 24.99 21.4581 24.93 21.5764 24.825 21.6502L 13.665 27.9901C 13.575 28.0493 13.425 28.0493 13.32 27.9901L 10.5 26.3054C 10.38 26.2611 10.26 26.2463 10.185 26.2906C 9.39 26.734 9.24 26.8227 8.505 27.0443C 8.325 27.1034 8.04 27.2069 8.61 27.5172L 12.33 29.6897C 12.69 29.8966 13.08 30 13.5 30C 13.92 30 14.31 29.8966 14.67 29.6897L 25.83 23.3498C 26.55 22.936 27 22.1675 27 21.3399L 27 8.6601C 27 7.83251 26.55 7.06404 25.83 6.65025L 14.67 0.295566C 14.325 0.103448 13.92 3.52343e-08 13.5 3.52343e-08ZM 16.5 9.08867C 13.32 9.08867 11.415 10.4039 11.415 12.6207C 11.415 15 13.305 15.6946 16.365 15.9901C 20.01 16.3448 20.295 16.8768 20.295 17.5862C 20.295 18.8128 19.29 19.33 16.95 19.33C 13.98 19.33 13.35 18.6059 13.125 17.1576C 13.095 17.0099 12.96 16.8916 12.795 16.8916L 11.355 16.8916C 11.175 16.8916 11.04 17.0246 11.04 17.2167C 11.04 19.0493 12.06 21.266 16.95 21.266C 20.475 21.266 22.5 19.8916 22.5 17.4975C 22.5 15.1182 20.88 14.4975 17.445 14.0394C 13.98 13.5961 13.635 13.3596 13.635 12.5616C 13.635 11.8966 13.935 11.0099 16.5 11.0099C 18.75 11.0099 19.635 11.4975 19.98 13.0197C 20.01 13.1675 20.145 13.2709 20.295 13.2709L 21.75 13.2709C 21.825 13.2709 21.915 13.2414 21.975 13.1675C 22.035 13.1084 22.08 13.0197 22.05 12.931C 21.84 10.3005 20.07 9.08867 16.5 9.08867Z"/>
</defs>
</svg>
