<svg width="42" height="42" viewBox="0 0 42 42" version="1.1" xmlns="http://www.w3.org/2000/svg" xmlns:xlink="http://www.w3.org/1999/xlink">
<title>Vector</title>
<desc>Created using Figma</desc>
<g id="Canvas" transform="translate(-102 2498)">
<g id="Vector">
<use xlink:href="#path0_fill" transform="translate(102 -2498)" fill="#FF6666"/>
</g>
</g>
<defs>
<path id="path0_fill" d="M 21 1.86517e-15C 18.2422 4.66294e-16 15.5115 0.543181 12.9636 1.59853C 10.4158 2.65388 8.10079 4.20073 6.15076 6.15076C 2.21249 10.089 8.39329e-15 15.4305 4.66294e-15 21C 9.32587e-15 26.5695 2.21249 31.911 6.15076 35.8492C 8.10079 37.7993 10.4158 39.3461 12.9636 40.4015C 15.5115 41.4568 18.2422 42 21 42C 26.5695 42 31.911 39.7875 35.8492 35.8492C 39.7875 31.911 42 26.5695 42 21C 42 18.2422 41.4568 15.5115 40.4015 12.9636C 39.3461 10.4158 37.7993 8.10079 35.8492 6.15076C 33.8992 4.20073 31.5842 2.65388 29.0364 1.59853C 26.4885 0.543181 23.7578 4.66294e-15 21 1.86517e-15ZM 14.7 14.7L 27.3 14.7L 27.3 27.3L 14.7 27.3"/>
</defs>
</svg>
