<svg width="46" height="48" viewBox="0 0 46 48" version="1.1" xmlns="http://www.w3.org/2000/svg" xmlns:xlink="http://www.w3.org/1999/xlink">
<title>Vector</title>
<desc>Created using Figma</desc>
<g id="Canvas" transform="translate(-887 2502)">
<g id="Vector">
<use xlink:href="#path0_fill" transform="translate(887.298 -2501.33)" fill="#212121" fill-opacity="0.8"/>
</g>
</g>
<defs>
<path id="path0_fill" d="M 40.0384 25.62C 40.1318 24.8733 40.2018 24.1267 40.2018 23.3333C 40.2018 22.54 40.1318 21.7933 40.0384 21.0467L 44.9618 17.1967C 45.4051 16.8467 45.5218 16.2167 45.2418 15.7033L 40.5751 7.63C 40.2951 7.11667 39.6651 6.93 39.1518 7.11667L 33.3418 9.45C 32.1284 8.51667 30.8218 7.74667 29.3984 7.16333L 28.5118 0.98C 28.4418 0.42 27.9518 0 27.3684 0L 18.0351 0C 17.4518 0 16.9618 0.42 16.8918 0.98L 16.0051 7.16333C 14.5818 7.74667 13.2751 8.54 12.0618 9.45L 6.25177 7.11667C 5.71511 6.90667 5.10844 7.11667 4.82844 7.63L 0.161774 15.7033C -0.14156 16.2167 -0.00155951 16.8467 0.441774 17.1967L 5.36511 21.0467C 5.27177 21.7933 5.20177 22.5633 5.20177 23.3333C 5.20177 24.1033 5.27177 24.8733 5.36511 25.62L 0.441774 29.47C -0.00155951 29.82 -0.118226 30.45 0.161774 30.9633L 4.82844 39.0367C 5.10844 39.55 5.73844 39.7367 6.25177 39.55L 12.0618 37.2167C 13.2751 38.15 14.5818 38.92 16.0051 39.5033L 16.8918 45.6867C 16.9618 46.2467 17.4518 46.6667 18.0351 46.6667L 27.3684 46.6667C 27.9518 46.6667 28.4418 46.2467 28.5118 45.6867L 29.3984 39.5033C 30.8218 38.92 32.1284 38.1267 33.3418 37.2167L 39.1518 39.55C 39.6884 39.76 40.2951 39.55 40.5751 39.0367L 45.2418 30.9633C 45.5218 30.45 45.4051 29.82 44.9618 29.47L 40.0384 25.62ZM 22.7018 31.5C 18.1984 31.5 14.5351 27.8367 14.5351 23.3333C 14.5351 18.83 18.1984 15.1667 22.7018 15.1667C 27.2051 15.1667 30.8684 18.83 30.8684 23.3333C 30.8684 27.8367 27.2051 31.5 22.7018 31.5Z"/>
</defs>
</svg>
